# xmcd
#
# Track frame offsets:
#	150
#	13585
#	28932
#	42741
#	53938
#	65615
#	79297
#	92657
#	105524
#	118702
#	129539
#
# Disc length: 1907 seconds
#
# Revision: 0
# Processed by: cddbd v1.5.2PL0 Copyright (c) Steve Scherf et al.
# Submitted via: EasyCDDAExtractor 16.0.9.1
#
DISCID=9807710b
DTITLE=Etta James - B-022 - The Best Of Etta James
DYEAR=1900
DGENRE=
TTITLE0=All I Could Do Was Cry
TTITLE1=Almost Persuaded
TTITLE2=At Last
TTITLE3=Don't Cry Baby
TTITLE4=I'd Rather Go Blind
TTITLE5=My Dearest Darling
TTITLE6=Pushover
TTITLE7=Something's Got A Hold On Me
TTITLE8=Stop The Wedding
TTITLE9=Tell Mama
TTITLE10=Trust In Me
EXTD=
EXTT0=
EXTT1=
EXTT2=
EXTT3=
EXTT4=
EXTT5=
EXTT6=
EXTT7=
EXTT8=
EXTT9=
EXTT10=
PLAYORDER=
